<svg width="19" height="18" viewBox="0 0 19 18" fill="none" xmlns="http://www.w3.org/2000/svg">
<path fill-rule="evenodd" clip-rule="evenodd" d="M2.11048 0H16.854C17.7532 0 18.4822 0.729 18.4822 1.62825V16.3717C18.4822 17.271 17.7532 18 16.8539 18H2.11048C1.21124 18 0.482239 17.271 0.482239 16.3717V1.62825C0.482239 0.729 1.21124 0 2.11048 0ZM5.57836 16.0162C5.84007 16.0162 6.0522 15.8041 6.0522 15.5424V7.08705C6.0522 6.82535 5.84007 6.61321 5.57836 6.61321H3.56132C3.29962 6.61321 3.08748 6.82535 3.08748 7.08705V15.5424C3.08748 15.8041 3.29962 16.0162 3.56132 16.0162H5.57836ZM4.56984 5.81617C3.51156 5.81617 2.65364 4.95825 2.65364 3.89997C2.65364 2.84169 3.51156 1.98377 4.56984 1.98377C5.62812 1.98377 6.48604 2.84169 6.48604 3.89997C6.48604 4.95825 5.62817 5.81617 4.56984 5.81617ZM16.1575 16.0162C16.3981 16.0162 16.5932 15.8212 16.5932 15.5806V11.4883V11.4581C16.5933 9.67288 16.5935 6.47133 13.1472 6.47133C11.5821 6.47133 10.847 7.04427 10.3524 7.78655V7.04888C10.3524 6.80829 10.1573 6.61321 9.91674 6.61321H7.82336C7.58277 6.61321 7.38769 6.80829 7.38769 7.04888V15.5806C7.38769 15.8212 7.58277 16.0162 7.82336 16.0162H9.91674C10.1574 16.0162 10.3524 15.8212 10.3524 15.5806V11.0062C10.4067 10.3915 10.6773 9.02191 12.0112 9.02191C13.6043 9.02191 13.5727 10.7389 13.5594 11.4622C13.5583 11.5197 13.5574 11.5709 13.5574 11.6145V15.5806C13.5574 15.8212 13.7525 16.0162 13.9931 16.0162H16.1575Z" fill="#1D428A"/>
</svg>

