<svg width="21" height="18" viewBox="0 0 21 18" fill="none" xmlns="http://www.w3.org/2000/svg">
<path d="M6.4693 17.3576C14.2321 17.3576 18.4781 10.9261 18.4781 5.34881C18.4781 5.16613 18.4781 4.98428 18.4657 4.80325C19.2917 4.20579 20.0048 3.46601 20.5714 2.61857C19.8011 2.95989 18.984 3.18373 18.1473 3.28261C19.0284 2.75515 19.6878 1.92553 20.0028 0.948167C19.1743 1.43979 18.268 1.78626 17.3228 1.97262C16.0145 0.581497 13.9357 0.241014 12.252 1.1421C10.5683 2.04318 9.69842 3.96174 10.1302 5.82195C6.73665 5.65182 3.57488 4.04896 1.43177 1.41226C0.311552 3.34074 0.883739 5.80785 2.73847 7.04636C2.0668 7.02645 1.40978 6.84527 0.822857 6.51809C0.822857 6.53537 0.822857 6.55347 0.822857 6.57157C0.823407 8.58066 2.23961 10.3111 4.20891 10.7089C3.58755 10.8784 2.93561 10.9031 2.30318 10.7813C2.85609 12.5006 4.44061 13.6784 6.24631 13.7123C4.75178 14.8869 2.90556 15.5245 1.00471 15.5226C0.668903 15.522 0.333425 15.5016 0 15.4617C1.93012 16.7003 4.17593 17.3574 6.4693 17.3543" fill="#1D428A"/>
</svg>
